0
SECTION
2
HEADER
9
$INSUNITS
70
4
9
$ACADVER
1
AC1014
9
$HANDSEED
5
FFFF
0
ENDSEC
0
SECTION
2
TABLES
0
TABLE
2
VPORT
5
8
100
AcDbSymbolTable
0
ENDTAB
0
TABLE
2
LTYPE
5
5
100
AcDbSymbolTable
0
LTYPE
5
14
100
AcDbSymbolTableRecord
100
AcDbLinetypeTableRecord
2
BYBLOCK
70
0
0
LTYPE
5
15
100
AcDbSymbolTableRecord
100
AcDbLinetypeTableRecord
2
BYLAYER
70
0
0
ENDTAB
0
TABLE
2
LAYER
5
2
100
AcDbSymbolTable
70
2
0
LAYER
5
50
100
AcDbSymbolTableRecord
100
AcDbLayerTableRecord
2
0
70
0
6
CONTINUOUS
0
ENDTAB
0
TABLE
2
STYLE
5
3
100
AcDbSymbolTable
70
1
0
STYLE
5
11
100
AcDbSymbolTableRecord
100
AcDbTextStyleTableRecord
2
STANDARD
70
0
0
ENDTAB
0
TABLE
2
VIEW
5
6
100
AcDbSymbolTable
70
0
0
ENDTAB
0
TABLE
2
UCS
5
7
100
AcDbSymbolTable
70
0
0
ENDTAB
0
TABLE
2
APPID
5
9
100
AcDbSymbolTable
70
2
0
APPID
5
12
100
AcDbSymbolTableRecord
100
AcDbRegAppTableRecord
2
ACAD
70
0
0
ENDTAB
0
TABLE
2
DIMSTYLE
5
A
100
AcDbSymbolTable
70
1
0
ENDTAB
0
TABLE
2
BLOCK_RECORD
5
1
100
AcDbSymbolTable
70
1
0
BLOCK_RECORD
5
1F
100
AcDbSymbolTableRecord
100
AcDbBlockTableRecord
2
*MODEL_SPACE
0
BLOCK_RECORD
5
1B
100
AcDbSymbolTableRecord
100
AcDbBlockTableRecord
2
*PAPER_SPACE
0
ENDTAB
0
ENDSEC
0
SECTION
2
BLOCKS
0
BLOCK
5
20
100
AcDbEntity
100
AcDbBlockBegin
2
*MODEL_SPACE
0
ENDBLK
5
21
100
AcDbEntity
100
AcDbBlockEnd
0
BLOCK
5
1C
100
AcDbEntity
100
AcDbBlockBegin
2
*PAPER_SPACE
0
ENDBLK
5
1D
100
AcDbEntity
100
AcDbBlockEnd
0
ENDSEC
0
SECTION
2
ENTITIES
0
LWPOLYLINE
5
100
100
AcDbEntity
8
0
100
AcDbPolyline
90
4
70
1
43
0.0
10
214.07716427933411
20
58.428346054669937
10
214.07716427933411
20
44.42834605466993
10
228.07716427933414
20
44.42834605466993
10
228.07716427933414
20
58.428346054669937
0
LWPOLYLINE
5
101
100
AcDbEntity
8
0
100
AcDbPolyline
90
4
70
1
43
0.0
10
75.010405598778263
20
110.44084709064164
10
89.010405598778263
20
110.44084709064164
10
89.010405598778263
20
124.4408470906416
10
75.010405598778263
20
124.4408470906416
0
LWPOLYLINE
5
102
100
AcDbEntity
8
0
100
AcDbPolyline
90
4
70
1
43
0.0
10
101.9999190062277
20
112.02732621755146
10
101.9999190062277
20
98.027326217551462
10
115.99991900622769
20
98.027326217551462
10
115.99991900622769
20
112.02732621755146
0
LWPOLYLINE
5
103
100
AcDbEntity
8
0
100
AcDbPolyline
90
4
70
1
43
0.0
10
251.2201346689086
20
42.53559966116665
10
237.22013466890857
20
42.53559966116665
10
237.22013466890857
20
28.53559966116665
10
251.2201346689086
20
28.53559966116665
0
LWPOLYLINE
5
104
100
AcDbEntity
8
0
100
AcDbPolyline
90
4
70
1
43
0.0
10
129.35549784081059
20
42.885582176792774
10
115.35549784081059
20
42.885582176792774
10
115.35549784081059
20
28.88558217679277
10
129.35549784081059
20
28.88558217679277
0
LWPOLYLINE
5
105
100
AcDbEntity
8
0
100
AcDbPolyline
90
4
70
1
43
0.0
10
187.34000000000006
20
97.558000000000007
10
187.34000000000006
20
111.55800000000002
10
173.34000000000003
20
111.55800000000002
10
173.34000000000003
20
97.558000000000007
0
LWPOLYLINE
5
106
100
AcDbEntity
8
0
100
AcDbPolyline
90
4
70
1
43
0.0
10
152.38970341178046
20
12.588064189998878
10
152.38970341178046
20
26.588064189998878
10
138.38970341178049
20
26.588064189998878
10
138.38970341178049
20
12.588064189998878
0
LWPOLYLINE
5
107
100
AcDbEntity
8
0
100
AcDbPolyline
90
4
70
1
43
0.0
10
59.499892976083615
20
121.35191843657353
10
45.499892976083601
20
121.35191843657353
10
45.499892976083601
20
107.35191843657354
10
59.499892976083615
20
107.35191843657354
0
LWPOLYLINE
5
108
100
AcDbEntity
8
0
100
AcDbPolyline
90
4
70
1
43
0.0
10
33.000283579397959
20
104.89128023169013
10
19.000283579397962
20
104.89128023169013
10
19.000283579397962
20
90.891280231690118
10
33.000283579397959
20
90.891280231690118
0
LWPOLYLINE
5
109
100
AcDbEntity
8
0
100
AcDbPolyline
90
4
70
1
43
0.0
10
228.23460803429327
20
26.595888657684831
10
214.23460803429322
20
26.595888657684831
10
214.23460803429322
20
12.595888657684826
10
228.23460803429327
20
12.595888657684826
0
LWPOLYLINE
5
110
100
AcDbEntity
8
0
100
AcDbPolyline
90
4
70
1
43
0.0
10
237.39792552917689
20
74.753907708520188
10
237.39792552917689
20
60.753907708520174
10
251.39792552917686
20
60.753907708520174
10
251.39792552917686
20
74.753907708520188
0
LWPOLYLINE
5
111
100
AcDbEntity
8
0
100
AcDbPolyline
90
4
70
1
43
0.0
10
271.67973539479408
20
152.44023851077466
10
271.67973539479408
20
138.44023851077469
10
285.67973539479402
20
138.44023851077469
10
285.67973539479402
20
152.44023851077466
0
LWPOLYLINE
5
112
100
AcDbEntity
8
0
100
AcDbPolyline
90
4
70
1
43
0.0
10
260.61283567986612
20
44.432263401723908
10
274.61283567986612
20
44.432263401723908
10
274.61283567986612
20
58.432263401723901
10
260.61283567986612
20
58.432263401723901
0
LWPOLYLINE
5
113
100
AcDbEntity
8
0
100
AcDbPolyline
90
4
70
1
43
0.0
10
258.68044295177157
20
140.02671763768441
10
244.68044295177162
20
140.02671763768441
10
244.68044295177162
20
126.02671763768444
10
258.68044295177157
20
126.02671763768444
0
LWPOLYLINE
5
114
100
AcDbEntity
8
0
100
AcDbPolyline
90
4
70
1
43
0.0
10
315.18018583564572
20
149.4642206476851
10
301.18018583564566
20
149.4642206476851
10
301.18018583564566
20
135.4642206476851
10
315.18018583564572
20
135.4642206476851
0
LWPOLYLINE
5
115
100
AcDbEntity
8
0
100
AcDbPolyline
90
4
70
1
43
0.0
10
315.18018583564572
20
121.35130985670656
10
301.18018583564566
20
121.35130985670656
10
301.18018583564566
20
107.35130985670658
10
315.18018583564572
20
107.35130985670658
0
LWPOLYLINE
5
116
100
AcDbEntity
8
0
100
AcDbPolyline
90
4
70
1
43
0.0
10
271.66967321295084
20
124.44023851077463
10
271.66967321295084
20
110.44023851077466
10
285.66967321295084
20
110.44023851077466
10
285.66967321295084
20
124.44023851077463
0
LWPOLYLINE
5
117
100
AcDbEntity
8
0
100
AcDbPolyline
90
4
70
1
43
0.0
10
327.67979523233129
20
90.890671651823141
10
341.67979523233146
20
90.890671651823141
10
341.67979523233146
20
104.89067165182313
10
327.67979523233129
20
104.89067165182313
0
LWPOLYLINE
5
118
100
AcDbEntity
8
0
100
AcDbPolyline
90
4
70
1
43
0.0
10
341.67957820033797
20
132.89067165182314
10
327.67957820033809
20
132.89067165182314
10
327.67957820033809
20
118.89067165182314
10
341.67957820033797
20
118.89067165182314
0
LWPOLYLINE
5
119
100
AcDbEntity
8
0
100
AcDbPolyline
90
4
70
1
43
0.0
10
258.68015980550126
20
112.02671763768438
10
244.68015980550132
20
112.02671763768438
10
244.68015980550132
20
98.026717637684413
10
258.68015980550126
20
98.026717637684413
0
LWPOLYLINE
5
120
100
AcDbEntity
8
0
100
AcDbPolyline
90
8
70
1
43
0.0
10
0
20
7.5000000000000355
42
0.41421356237309703
10
7.4999999999999964
20
1.1102230246251563e-15
10
353.18000000000006
20
0
42
0.41421356237308621
10
360.68000000000006
20
7.4999999999999991
10
360.68000000000006
20
157.59999999999997
42
0.41421356237308876
10
353.18000000000006
20
165.10000000000005
10
7.5
20
165.10000000000005
42
0.41421356237309648
10
-1.7763568394002501e-14
20
157.60000000000005
0
CIRCLE
5
121
100
AcDbEntity
8
0
100
AcDbCircle
10
353.17999999999995
20
82.549999999999983
30
0
40
2.600000000000013
210
0
220
0
230
1
0
CIRCLE
5
122
100
AcDbEntity
8
0
100
AcDbCircle
10
7.4999999999999867
20
82.549999999999983
30
0
40
2.600000000000013
210
0
220
0
230
1
0
CIRCLE
5
123
100
AcDbEntity
8
0
100
AcDbCircle
10
7.4999999999999911
20
7.4999999999999911
30
0
40
2.6000000000000001
210
0
220
0
230
1
0
CIRCLE
5
124
100
AcDbEntity
8
0
100
AcDbCircle
10
237.95339999999999
20
157.59999999999997
30
0
40
2.600000000000013
210
0
220
0
230
1
0
CIRCLE
5
125
100
AcDbEntity
8
0
100
AcDbCircle
10
122.72660000000002
20
7.4999999999999964
30
0
40
2.600000000000013
210
0
220
0
230
1
0
CIRCLE
5
126
100
AcDbEntity
8
0
100
AcDbCircle
10
237.95339999999999
20
7.5000000000000462
30
0
40
2.600000000000013
210
0
220
0
230
1
0
CIRCLE
5
127
100
AcDbEntity
8
0
100
AcDbCircle
10
353.17999999999995
20
7.5000000000000462
30
0
40
2.6000000000000063
210
0
220
0
230
1
0
CIRCLE
5
128
100
AcDbEntity
8
0
100
AcDbCircle
10
7.4999999999999822
20
157.60000000000005
30
0
40
2.6000000000000001
210
0
220
0
230
1
0
CIRCLE
5
129
100
AcDbEntity
8
0
100
AcDbCircle
10
353.17999999999995
20
157.59999999999997
30
0
40
2.600000000000013
210
0
220
0
230
1
0
CIRCLE
5
130
100
AcDbEntity
8
0
100
AcDbCircle
10
122.72660000000002
20
157.60000000000005
30
0
40
2.600000000000013
210
0
220
0
230
1
0
LINE
5
131
100
AcDbEntity
8
0
100
AcDbLine
10
173.34146025183429
20
163.10002285769912
30
0
11
173.34146025183429
21
165.09999630972743
31
0
0
LINE
5
132
100
AcDbEntity
8
0
100
AcDbLine
10
171.34146025183429
20
163.10002285769912
30
0
11
173.34146025183429
21
163.10002285769912
31
0
0
LINE
5
133
100
AcDbEntity
8
0
100
AcDbLine
10
171.34146025183429
20
162.09971996626703
30
0
11
171.34146025183429
21
163.10002285769912
31
0
0
LINE
5
134
100
AcDbEntity
8
0
100
AcDbLine
10
173.34147822469674
20
162.09971996626703
30
0
11
171.34146025183429
21
162.09971996626703
31
0
0
LINE
5
135
100
AcDbEntity
8
0
100
AcDbLine
10
173.34147822469674
20
162.09971996626703
30
0
11
187.34148895070717
21
162.09982721378142
31
0
0
LINE
5
136
100
AcDbEntity
8
0
100
AcDbLine
10
187.34148895070717
20
162.09982721378142
30
0
11
189.34148895070717
21
162.09982721378142
31
0
0
LINE
5
137
100
AcDbEntity
8
0
100
AcDbLine
10
189.34148895070717
20
162.09982721378142
30
0
11
189.34148895070717
21
163.09982721378145
31
0
0
LINE
5
138
100
AcDbEntity
8
0
100
AcDbLine
10
189.34148895070717
20
163.09982721378145
30
0
11
187.34148895070717
21
163.09982721378145
31
0
0
LINE
5
139
100
AcDbEntity
8
0
100
AcDbLine
10
187.34148895070717
20
163.09982721378145
30
0
11
187.34148895070717
21
165.09999630972743
31
0
0
ENDSEC
0
SECTION
2
OBJECTS
0
DICTIONARY
5
C
100
AcDbDictionary
3
ACAD_GROUP
350
D
3
ACAD_MLINESTYLE
350
17
0
DICTIONARY
5
D
100
AcDbDictionary
0
DICTIONARY
5
1A
330
C
100
AcDbDictionary
0
DICTIONARY
5
17
100
AcDbDictionary
0
ENDSEC
0
EOF
