0
SECTION
2
HEADER
9
$INSUNITS
70
4
9
$ACADVER
1
AC1014
9
$HANDSEED
5
FFFF
0
ENDSEC
0
SECTION
2
TABLES
0
TABLE
2
VPORT
5
8
100
AcDbSymbolTable
0
ENDTAB
0
TABLE
2
LTYPE
5
5
100
AcDbSymbolTable
0
LTYPE
5
14
100
AcDbSymbolTableRecord
100
AcDbLinetypeTableRecord
2
BYBLOCK
70
0
0
LTYPE
5
15
100
AcDbSymbolTableRecord
100
AcDbLinetypeTableRecord
2
BYLAYER
70
0
0
ENDTAB
0
TABLE
2
LAYER
5
2
100
AcDbSymbolTable
70
2
0
LAYER
5
50
100
AcDbSymbolTableRecord
100
AcDbLayerTableRecord
2
0
70
0
6
CONTINUOUS
0
ENDTAB
0
TABLE
2
STYLE
5
3
100
AcDbSymbolTable
70
1
0
STYLE
5
11
100
AcDbSymbolTableRecord
100
AcDbTextStyleTableRecord
2
STANDARD
70
0
0
ENDTAB
0
TABLE
2
VIEW
5
6
100
AcDbSymbolTable
70
0
0
ENDTAB
0
TABLE
2
UCS
5
7
100
AcDbSymbolTable
70
0
0
ENDTAB
0
TABLE
2
APPID
5
9
100
AcDbSymbolTable
70
2
0
APPID
5
12
100
AcDbSymbolTableRecord
100
AcDbRegAppTableRecord
2
ACAD
70
0
0
ENDTAB
0
TABLE
2
DIMSTYLE
5
A
100
AcDbSymbolTable
70
1
0
ENDTAB
0
TABLE
2
BLOCK_RECORD
5
1
100
AcDbSymbolTable
70
1
0
BLOCK_RECORD
5
1F
100
AcDbSymbolTableRecord
100
AcDbBlockTableRecord
2
*MODEL_SPACE
0
BLOCK_RECORD
5
1B
100
AcDbSymbolTableRecord
100
AcDbBlockTableRecord
2
*PAPER_SPACE
0
ENDTAB
0
ENDSEC
0
SECTION
2
BLOCKS
0
BLOCK
5
20
100
AcDbEntity
100
AcDbBlockBegin
2
*MODEL_SPACE
0
ENDBLK
5
21
100
AcDbEntity
100
AcDbBlockEnd
0
BLOCK
5
1C
100
AcDbEntity
100
AcDbBlockBegin
2
*PAPER_SPACE
0
ENDBLK
5
1D
100
AcDbEntity
100
AcDbBlockEnd
0
ENDSEC
0
SECTION
2
ENTITIES
0
LINE
5
100
100
AcDbEntity
8
0
100
AcDbLine
10
153.53553390593274
20
93.535533905932766
30
0
11
151.46446609406726
21
91.464466094067234
31
0
0
ARC
5
101
100
AcDbEntity
8
0
100
AcDbCircle
10
175.28234239894661
20
157.32510903981597
30
0
40
5.1541670610459818
210
0
220
0
230
1
100
AcDbArc
50
112.12089552874217
51
167.964052453346
0
LINE
5
102
100
AcDbEntity
8
0
100
AcDbLine
10
168.04497477584562
20
120
30
0
11
161.65685424949237
21
120
31
0
0
LINE
5
103
100
AcDbEntity
8
0
100
AcDbLine
10
135
20
97.071067811865518
30
0
11
135.00000000000003
21
112.92893218813454
31
0
0
LINE
5
104
100
AcDbEntity
8
0
100
AcDbLine
10
115
20
132.0710678118655
30
0
11
115
21
133.34314575050763
31
0
0
ARC
5
105
100
AcDbEntity
8
0
100
AcDbCircle
10
185.40061399264786
20
157.32510591627647
30
0
40
5.1541699763886442
210
0
220
-0
230
1
100
AcDbArc
50
12.035976139802829
51
67.8791169510217
0
LINE
5
106
100
AcDbEntity
8
0
100
AcDbLine
10
187.34148895070717
20
162.09982721378142
30
0
11
189.34148895070717
21
162.09982721378142
31
0
0
LINE
5
107
100
AcDbEntity
8
0
100
AcDbLine
10
133.53553390593274
20
116.46446609406723
30
0
11
131.46446609406726
21
118.53553390593277
31
0
0
LINE
5
108
100
AcDbEntity
8
0
100
AcDbLine
10
22.071067811865465
20
83.869740584016938
30
0
11
42.928932858686778
21
83.869740584016938
31
0
0
LINE
5
109
100
AcDbEntity
8
0
100
AcDbLine
10
56.383676357354346
20
93.182348458953584
30
0
11
72.426494137406451
21
93.182348458953584
31
0
0
LINE
5
110
100
AcDbEntity
8
0
100
AcDbLine
10
96.214220065309433
20
82.88315470872476
30
0
11
106.10456912912973
21
77.488418855731865
31
0
0
LINE
5
111
100
AcDbEntity
8
0
100
AcDbLine
10
14.869739257813585
20
107.79867144594814
30
0
11
14.869739257813599
21
91.071069138068808
31
0
0
LINE
5
112
100
AcDbEntity
8
0
100
AcDbLine
10
16.334205351880851
20
87.535535232136098
30
0
11
18.535533905932734
21
85.3342066780842
31
0
0
LINE
5
113
100
AcDbEntity
8
0
100
AcDbLine
10
19.121320343559638
20
114.12132034355965
30
0
11
16.334205351880847
21
111.33420535188085
31
0
0
LINE
5
114
100
AcDbEntity
8
0
100
AcDbLine
10
187.34148895070717
20
163.09982721378145
30
0
11
187.34148895070717
21
165.09999630972743
31
0
0
LINE
5
115
100
AcDbEntity
8
0
100
AcDbLine
10
46.464466764619523
20
85.3342066780842
30
0
11
52.848142451421609
21
91.717882364886307
31
0
0
LINE
5
116
100
AcDbEntity
8
0
100
AcDbLine
10
190.84147911855047
20
148.79988370683202
30
0
11
190.84147911855047
21
158.3998834922553
31
0
0
LINE
5
117
100
AcDbEntity
8
0
100
AcDbLine
10
186.50000277906653
20
148.79988370683202
30
0
11
190.84147911855047
21
148.79988370683202
31
0
0
LINE
5
118
100
AcDbEntity
8
0
100
AcDbLine
10
190.84147911855047
20
158.3998834922553
30
0
11
190.44147912749122
21
158.39988349225527
31
0
0
LINE
5
119
100
AcDbEntity
8
0
100
AcDbLine
10
155
20
113.75735931288074
30
0
11
155.00000000000003
21
97.071067811865476
31
0
0
LINE
5
120
100
AcDbEntity
8
0
100
AcDbLine
10
187.04230637575503
20
129.22527996101678
30
0
11
188.50711832105802
21
127.13268980617052
31
0
0
LINE
5
121
100
AcDbEntity
8
0
100
AcDbLine
10
138.53553390593274
20
91.464466094067234
30
0
11
136.46446609406726
21
93.535533905932766
31
0
0
LINE
5
122
100
AcDbEntity
8
0
100
AcDbLine
10
106.46446609406726
20
23.535533905932738
30
0
11
108.53553390593277
21
21.464466094067266
31
0
0
LINE
5
123
100
AcDbEntity
8
0
100
AcDbLine
10
30
20
122.92893218813454
30
0
11
30
21
119
31
0
0
LINE
5
124
100
AcDbEntity
8
0
100
AcDbLine
10
174.29999610409141
20
148.79988370683202
30
0
11
174.29999610409141
21
126.15856369176021
31
0
0
LINE
5
125
100
AcDbEntity
8
0
100
AcDbLine
10
73.550403949050292
20
93.021205936809523
30
0
11
87.80616259439347
21
88.847519597488457
31
0
0
LINE
5
126
100
AcDbEntity
8
0
100
AcDbLine
10
223.40376427796471
20
111.41248006536102
30
0
11
223.22123964548211
21
111.23262407808994
31
0
0
LINE
5
127
100
AcDbEntity
8
0
100
AcDbLine
10
189.34148895070717
20
162.09982721378142
30
0
11
189.34148895070717
21
163.09982721378145
31
0
0
LINE
5
128
100
AcDbEntity
8
0
100
AcDbLine
10
38.828427124746192
20
133.82842712474621
30
0
11
31.464466094067252
21
126.46446609406723
31
0
0
LINE
5
129
100
AcDbEntity
8
0
100
AcDbLine
10
117.35488219563486
20
75.944851839118257
30
0
11
120.14524161750472
21
73.771785000155432
31
0
0
LINE
5
130
100
AcDbEntity
8
0
100
AcDbLine
10
238.10492876891968
20
17.845422347696342
30
0
11
238.0999880609063
21
17.799917665562074
31
0
0
LINE
5
131
100
AcDbEntity
8
0
100
AcDbLine
10
171.34146025183429
20
163.10002285769912
30
0
11
173.34146025183429
21
163.10002285769912
31
0
0
LINE
5
132
100
AcDbEntity
8
0
100
AcDbLine
10
123.82842712474621
20
121.1715728752538
30
0
11
116.46446609406723
21
128.53553390593274
31
0
0
LINE
5
133
100
AcDbEntity
8
0
100
AcDbLine
10
170.24147957899655
20
158.39988349225533
30
0
11
169.84147958793724
21
158.3998834922553
31
0
0
LINE
5
134
100
AcDbEntity
8
0
100
AcDbLine
10
89.8068871337817
20
87.823054210779134
30
0
11
95.807481828924153
21
83.149931012430613
31
0
0
LINE
5
135
100
AcDbEntity
8
0
100
AcDbLine
10
52.928932188134532
20
135
30
0
11
41.656854249492383
21
135
31
0
0
LINE
5
136
100
AcDbEntity
8
0
100
AcDbLine
10
122.07308390345972
20
69.826934308426559
30
0
11
122.07308390345972
21
60
31
0
0
LINE
5
137
100
AcDbEntity
8
0
100
AcDbLine
10
172.69152695976146
20
122.48466678860169
30
0
11
171.4365056315157
21
121.32610309684151
31
0
0
LINE
5
138
100
AcDbEntity
8
0
100
AcDbLine
10
201.38417439423762
20
11.705638024334293
30
0
11
201.53458729348847
21
11.555225125083375
31
0
0
LINE
5
139
100
AcDbEntity
8
0
100
AcDbLine
10
130
20
15
30
0
11
134.12132034355966
21
10.878679656440358
31
0
0
LINE
5
140
100
AcDbEntity
8
0
100
AcDbLine
10
344.63386423052009
20
136.17157287525382
30
0
11
341.75208525407248
21
139.05335185170148
31
0
0
LINE
5
141
100
AcDbEntity
8
0
100
AcDbLine
10
204.75577634623693
20
124.49615159831252
30
0
11
205.75700321052358
21
123.82866764376487
31
0
0
LINE
5
142
100
AcDbEntity
8
0
100
AcDbLine
10
171.34146025183429
20
162.09971996626703
30
0
11
171.34146025183429
21
163.10002285769912
31
0
0
LINE
5
143
100
AcDbEntity
8
0
100
AcDbLine
10
173.34147822469674
20
162.09971996626703
30
0
11
171.34146025183429
21
162.09971996626703
31
0
0
LINE
5
144
100
AcDbEntity
8
0
100
AcDbLine
10
322.13462799883325
20
144.3329374152413
30
0
11
322.13462799883325
21
149.90509327841289
31
0
0
LINE
5
145
100
AcDbEntity
8
0
100
AcDbLine
10
169.84147958793724
20
148.79988370683202
30
0
11
174.29999610409141
21
148.79988370683202
31
0
0
LINE
5
146
100
AcDbEntity
8
0
100
AcDbLine
10
107.51471862576142
20
140.00000000000003
30
0
11
61.656854249492383
21
140
31
0
0
LINE
5
147
100
AcDbEntity
8
0
100
AcDbLine
10
162.5
20
14.571067811865479
30
0
11
162.5
21
22.700324724764343
31
0
0
LINE
5
148
100
AcDbEntity
8
0
100
AcDbLine
10
266.84534412915229
20
36.464466094067262
30
0
11
267.96509024226015
21
37.584212207175128
31
0
0
LINE
5
149
100
AcDbEntity
8
0
100
AcDbLine
10
112.07106781186548
20
20.000000000000004
30
0
11
122.92893218813454
21
20
31
0
0
LINE
5
150
100
AcDbEntity
8
0
100
AcDbLine
10
321.46446609406729
20
83.535533905932752
30
0
11
320.93944934086488
21
84.060550659135217
31
0
0
LINE
5
151
100
AcDbEntity
8
0
100
AcDbLine
10
189.34148895070717
20
163.09982721378145
30
0
11
187.34148895070717
21
163.09982721378145
31
0
0
LINE
5
152
100
AcDbEntity
8
0
100
AcDbLine
10
205.07012119942124
20
10.090759031016097
30
0
11
229.18744724529773
21
10.090759031016097
31
0
0
LINE
5
153
100
AcDbEntity
8
0
100
AcDbLine
10
126.46446609406726
20
18.535533905932745
30
0
11
130
21
15
31
0
0
LINE
5
154
100
AcDbEntity
8
0
100
AcDbLine
10
271.46446609406729
20
90.791943945678639
30
0
11
272.4768427835495
21
91.804320635160863
31
0
0
LINE
5
155
100
AcDbEntity
8
0
100
AcDbLine
10
273.94130887761679
20
95.339854541093629
30
0
11
273.94130887761679
21
97.928932188134482
31
0
0
LINE
5
156
100
AcDbEntity
8
0
100
AcDbLine
10
324.12132034355972
20
141.10360438339563
30
0
11
323.01330765527376
21
142.21161707168164
31
0
0
LINE
5
157
100
AcDbEntity
8
0
100
AcDbLine
10
192.60327899324383
20
125
30
0
11
203.09167683051015
21
125
31
0
0
LINE
5
158
100
AcDbEntity
8
0
100
AcDbLine
10
136.24264068711926
20
10.000000000000004
30
0
11
159.17157287525382
21
10
31
0
0
LINE
5
159
100
AcDbEntity
8
0
100
AcDbLine
10
197.95860657957712
20
26.500956357678632
30
0
11
197.34507778122531
21
26.970529002624954
31
0
0
LINE
5
160
100
AcDbEntity
8
0
100
AcDbLine
10
113.82842712474621
20
136.17157287525379
30
0
11
111.75735931288074
21
138.24264068711926
31
0
0
LINE
5
161
100
AcDbEntity
8
0
100
AcDbLine
10
173.34146025183429
20
163.10002285769912
30
0
11
173.34146025183429
21
165.09999630972743
31
0
0
LINE
5
162
100
AcDbEntity
8
0
100
AcDbLine
10
58.828427124746199
20
138.82842712474621
30
0
11
56.464466094067269
21
136.46446609406726
31
0
0
LINE
5
163
100
AcDbEntity
8
0
100
AcDbLine
10
108.53553390593657
20
53.535533905936568
30
0
11
106.46446609406726
21
51.464466094067269
31
0
0
LINE
5
164
100
AcDbEntity
8
0
100
AcDbLine
10
186.50000277906653
20
148.79988370683202
30
0
11
186.50000277906653
21
130.94566607731448
31
0
0
LINE
5
165
100
AcDbEntity
8
0
100
AcDbLine
10
282.4122934893519
20
69.208111685946974
30
0
11
279.70402113080536
21
71.916384044493583
31
0
0
LINE
5
166
100
AcDbEntity
8
0
100
AcDbLine
10
300.69461798911425
20
100
30
0
11
312.92893218813452
21
100
31
0
0
LINE
5
167
100
AcDbEntity
8
0
100
AcDbLine
10
263.31144709665045
20
25.492391959921417
30
0
11
263.91641194101783
21
26.097356804288712
31
0
0
LINE
5
168
100
AcDbEntity
8
0
100
AcDbLine
10
283.87675958341919
20
44.996505696527024
30
0
11
283.87675958341919
21
65.672577780014251
31
0
0
LINE
5
169
100
AcDbEntity
8
0
100
AcDbLine
10
117.07308390345972
20
55.000000000000007
30
0
11
112.07106781187315
21
55
31
0
0
LINE
5
170
100
AcDbEntity
8
0
100
AcDbLine
10
224.00000333786011
20
130.74440013308549
30
0
11
224.00000333786011
21
112.83706955817524
31
0
0
LINE
5
171
100
AcDbEntity
8
0
100
AcDbLine
10
127.92893218813454
20
120
30
0
11
126.6568542494924
21
120
31
0
0
LINE
5
172
100
AcDbEntity
8
0
100
AcDbLine
10
26
20
115
30
0
11
21.242640687119287
21
115
31
0
0
LINE
5
173
100
AcDbEntity
8
0
100
AcDbLine
10
263.49815012716527
20
145.12132251912919
30
0
11
262.74334105270543
21
144.36651344466941
31
0
0
LINE
5
174
100
AcDbEntity
8
0
100
AcDbLine
10
268.46416740275572
20
155.46044126908509
30
0
11
265.2555094400459
21
152.25178330637536
31
0
0
LINE
5
175
100
AcDbEntity
8
0
100
AcDbLine
10
160.58578643762687
20
10.585786437626918
30
0
11
161.03553390593274
21
11.035533905932741
31
0
0
LINE
5
176
100
AcDbEntity
8
0
100
AcDbLine
10
276.16848722487254
20
73.380850138560845
30
0
11
264.71474285055785
21
73.380850138560845
31
0
0
LINE
5
177
100
AcDbEntity
8
0
100
AcDbLine
10
158.82842712474621
20
118.82842712474621
30
0
11
155.87867965644037
21
115.87867965644037
31
0
0
LINE
5
178
100
AcDbEntity
8
0
100
AcDbLine
10
147.92893218813452
20
89.999999999999986
30
0
11
142.07106781186548
21
90
31
0
0
LINE
5
179
100
AcDbEntity
8
0
100
AcDbLine
10
281.46446609406729
20
40.513144395309617
30
0
11
282.4122934893519
21
41.460971790594279
31
0
0
LINE
5
180
100
AcDbEntity
8
0
100
AcDbLine
10
277.21629019820045
20
102.44655419583744
30
0
11
293.84230335147618
21
102.44655419583744
31
0
0
LINE
5
181
100
AcDbEntity
8
0
100
AcDbLine
10
345.80543710577388
20
87.071067811865561
30
0
11
345.80543710577388
21
133.34314575050766
31
0
0
LINE
5
182
100
AcDbEntity
8
0
100
AcDbLine
10
324.47498324679748
20
82.596084565067983
30
0
11
341.3304538589764
21
82.596084565067983
31
0
0
LINE
5
183
100
AcDbEntity
8
0
100
AcDbLine
10
232.93145216816768
20
133.97076051613942
30
0
11
226.81981604480231
21
133.97076051613942
31
0
0
LINE
5
184
100
AcDbEntity
8
0
100
AcDbLine
10
105
20
47.928932188134532
30
0
11
105
21
27.07106781186549
31
0
0
LINE
5
185
100
AcDbEntity
8
0
100
AcDbLine
10
318.25600040996278
20
153.78372086728317
30
0
11
293.24264503825839
21
153.78372086728317
31
0
0
LINE
5
186
100
AcDbEntity
8
0
100
AcDbLine
10
239.78034232229282
20
21.02492259064304
30
0
11
241.80285469555886
21
22.792637964388799
31
0
0
LINE
5
187
100
AcDbEntity
8
0
100
AcDbLine
10
108.01997765185206
20
77.000001147389398
30
0
11
114.28272448158985
21
77.000001147389398
31
0
0
LINE
5
188
100
AcDbEntity
8
0
100
AcDbLine
10
169.84147958793724
20
158.3998834922553
30
0
11
169.84147958793724
21
148.79988370683202
31
0
0
LINE
5
189
100
AcDbEntity
8
0
100
AcDbLine
10
233.33641248249023
20
134.17225513354015
30
0
11
232.93145216816768
21
133.97076051613942
31
0
0
LINE
5
190
100
AcDbEntity
8
0
100
AcDbLine
10
225.41605510469779
20
133.3953500089537
30
0
11
224.89436192770327
21
132.88128437230688
31
0
0
LINE
5
191
100
AcDbEntity
8
0
100
AcDbLine
10
338.92365812932616
20
140.22492472695532
30
0
11
326.24264068711932
21
140.22492472695532
31
0
0
LWPOLYLINE
5
192
100
AcDbEntity
8
0
100
AcDbPolyline
90
8
70
1
43
0.0
10
7.5
20
165.10000000000005
42
0.41421356237309803
10
3.1086244689504383e-14
20
157.60000000000005
10
2.2204460492503131e-15
20
7.5000000000000355
42
0.41421356237309692
10
7.4999999999999964
20
4.4408920985006262e-15
10
353.18000000000006
20
1.1102230246251565e-15
42
0.41421356237308476
10
360.68000000000006
20
7.4999999999999991
10
360.68000000000006
20
157.59999999999997
42
0.4142135623730902
10
353.18000000000006
20
165.10000000000016
0
ARC
5
193
100
AcDbEntity
8
0
100
AcDbCircle
10
229.18744724529773
20
15.09075903101601
30
0
40
4.999999999999913
210
0
220
0
230
1
100
AcDbArc
50
270
51
309.852299663238
0
ARC
5
194
100
AcDbEntity
8
0
100
AcDbCircle
10
277.92893218813447
20
44.048678301242532
30
0
40
5.000000000000151
210
0
220
0
230
1
100
AcDbArc
50
270.00000000000068
51
314.9999999999992
0
LINE
5
195
100
AcDbEntity
8
0
100
AcDbLine
10
296.03988337019592
20
101.9377279913305
30
0
11
299.37606997788237
21
100.30529572270417
31
0
0
LINE
5
196
100
AcDbEntity
8
0
100
AcDbLine
10
199.91970830017038
20
21.000000312924389
30
0
11
199.91970830017038
21
22.53042777228616
31
0
0
LINE
5
197
100
AcDbEntity
8
0
100
AcDbLine
10
271.50062414819286
20
39.048678301242376
30
0
11
277.92893218813452
21
39.048678301242383
31
0
0
ARC
5
198
100
AcDbEntity
8
0
100
AcDbCircle
10
271.50062414819297
20
34.048678301242141
30
0
40
5.0000000000002309
210
0
220
0
230
1
100
AcDbArc
50
90.000000000001307
51
134.99999999999866
0
LINE
5
199
100
AcDbEntity
8
0
100
AcDbLine
10
245.09328670590438
20
24.027925865854129
30
0
11
259.7759131907178
21
24.027925865854122
31
0
0
ARC
5
200
100
AcDbEntity
8
0
100
AcDbCircle
10
260.38087803508523
20
29.632890710221318
30
0
40
4.9999999999997886
210
0
220
0
230
1
100
AcDbArc
50
-45.000000000000099
51
0
0
LINE
5
201
100
AcDbEntity
8
0
100
AcDbLine
10
261.17920894462509
20
74.845316232628079
30
0
11
255.40401510615456
21
80.620510071098565
31
0
0
ARC
5
202
100
AcDbEntity
8
0
100
AcDbCircle
10
276.16848722487254
20
68.380850138560703
30
0
40
5.0000000000001465
210
0
220
-0
230
1
100
AcDbArc
50
45.000000000000462
51
90
0
LINE
5
203
100
AcDbEntity
8
0
100
AcDbLine
10
232.39150085995402
20
11.252264477886209
30
0
11
236.33819611035312
21
14.546634968180916
31
0
0
ARC
5
204
100
AcDbEntity
8
0
100
AcDbCircle
10
278.87675958341913
20
44.996505696527045
30
0
40
5.0000000000000533
210
0
220
0
230
1
100
AcDbArc
50
315
51
360
0
ARC
5
205
100
AcDbEntity
8
0
100
AcDbCircle
10
278.87675958341913
20
65.672577780014223
30
0
40
5.0000000000000355
210
0
220
-0
230
1
100
AcDbArc
50
0
51
44.999999999999893
0
CIRCLE
5
206
100
AcDbEntity
8
0
100
AcDbCircle
10
353.17999999999995
20
82.549999999999983
30
0
40
3.3500000000000001
210
0
220
0
230
1
0
LINE
5
207
100
AcDbEntity
8
0
100
AcDbLine
10
207.08772692729977
20
121.50868019067148
30
0
11
207.53343981821243
21
113.93147814952442
31
0
0
CIRCLE
5
208
100
AcDbEntity
8
0
100
AcDbCircle
10
353.17999999999984
20
7.5000000000001199
30
0
40
3.3500000000000001
210
0
220
0
230
1
0
LINE
5
209
100
AcDbEntity
8
0
100
AcDbLine
10
265.38087803508506
20
29.632890710221318
30
0
11
265.38087803508506
21
32.928932188134489
31
0
0
LINE
5
210
100
AcDbEntity
8
0
100
AcDbLine
10
194.30617950181855
20
28.000000417232496
30
0
11
167.84962188309495
21
28.000000417232513
31
0
0
LINE
5
211
100
AcDbEntity
8
0
100
AcDbLine
10
221.11559823532519
20
110.36950831731131
30
0
11
211.25560496311164
21
110.36950831731131
31
0
0
LINE
5
212
100
AcDbEntity
8
0
100
AcDbLine
10
291.12132469469873
20
154.66240052372356
30
0
11
290.32328394933722
21
155.46044126908509
31
0
0
LINE
5
213
100
AcDbEntity
8
0
100
AcDbLine
10
260.62202070914583
20
143.48783378822904
30
0
11
240.7051220646598
21
143.48783378822904
31
0
0
CIRCLE
5
214
100
AcDbEntity
8
0
100
AcDbCircle
10
237.95339999999999
20
157.59999999999997
30
0
40
3.3500000000000085
210
0
220
0
230
1
0
LINE
5
215
100
AcDbEntity
8
0
100
AcDbLine
10
321.25594834239286
20
152.02641362197252
30
0
11
320.37732075352267
21
152.90504121084291
31
0
0
CIRCLE
5
216
100
AcDbEntity
8
0
100
AcDbCircle
10
237.95339999999999
20
7.5000000000000462
30
0
40
3.3499999999999934
210
0
220
0
230
1
0
LINE
5
217
100
AcDbEntity
8
0
100
AcDbLine
10
239.36871308394245
20
143.17372489478157
30
0
11
237.77265520057728
21
142.37958023125807
31
0
0
LINE
5
218
100
AcDbEntity
8
0
100
AcDbLine
10
264.37682978360556
20
150.1304629628157
30
0
11
264.37682978360556
21
147.2426428626888
31
0
0
LINE
5
219
100
AcDbEntity
8
0
100
AcDbLine
10
251.52013168012246
20
86.16124774662309
30
0
11
251.52013168012246
21
85.726499451497602
31
0
0
LINE
5
220
100
AcDbEntity
8
0
100
AcDbLine
10
344.86598776490905
20
84.060550659135231
30
0
11
344.34097101170659
21
83.535533905932752
31
0
0
LINE
5
221
100
AcDbEntity
8
0
100
AcDbLine
10
255.40401510615456
20
80.620510071098565
30
0
11
252.69170455537625
21
83.332820621876934
31
0
0
ARC
5
222
100
AcDbEntity
8
0
100
AcDbCircle
10
270.38087803508506
20
32.92893218813451
30
0
40
5.000000000000016
210
0
220
0
230
1
100
AcDbArc
50
135.00000000000011
51
180
0
LINE
5
223
100
AcDbEntity
8
0
100
AcDbLine
10
320
20
92.928932188134482
30
0
11
320
21
87.071067811865561
31
0
0
CIRCLE
5
224
100
AcDbEntity
8
0
100
AcDbCircle
10
7.4999999999999911
20
7.4999999999999911
30
0
40
3.3500000000000001
210
0
220
0
230
1
0
CIRCLE
5
225
100
AcDbEntity
8
0
100
AcDbCircle
10
122.72660000000002
20
157.60000000000005
30
0
40
3.350000000000009
210
0
220
0
230
1
0
CIRCLE
5
226
100
AcDbEntity
8
0
100
AcDbCircle
10
122.72660000000002
20
7.4999999999999964
30
0
40
3.3499999999999961
210
0
220
0
230
1
0
LINE
5
227
100
AcDbEntity
8
0
100
AcDbLine
10
209.11872072389031
20
111.26386690715452
30
0
11
208.39137881149387
21
112.00200088458672
31
0
0
ARC
5
228
100
AcDbEntity
8
0
100
AcDbCircle
10
205.07012119942129
20
15.090759031016177
30
0
40
5.0000000000000764
210
0
220
0
230
1
100
AcDbArc
50
224.99999999999983
51
269.99999999999932
0
LINE
5
229
100
AcDbEntity
8
0
100
AcDbLine
10
316.46446609406729
20
98.535533905932766
30
0
11
318.53553390593271
21
96.464466094067234
31
0
0
LINE
5
230
100
AcDbEntity
8
0
100
AcDbLine
10
275.40577497168402
20
101.46446609406723
30
0
11
275.80207663582729
21
101.8607677582105
31
0
0
LINE
5
231
100
AcDbEntity
8
0
100
AcDbLine
10
199.91970830017038
20
15.241171930267008
30
0
11
199.91970830017038
21
21.000000312924389
31
0
0
LINE
5
232
100
AcDbEntity
8
0
100
AcDbLine
10
288.20196360577762
20
156.33912092552544
30
0
11
270.58548774631538
21
156.33912092552544
31
0
0
ARC
5
233
100
AcDbEntity
8
0
100
AcDbCircle
10
233.13414249569689
20
18.385129521310809
30
0
40
4.9999999999999689
210
0
220
0
230
1
100
AcDbArc
50
309.85229966323681
51
353.80333814320255
0
CIRCLE
5
234
100
AcDbEntity
8
0
100
AcDbCircle
10
353.17999999999995
20
157.59999999999997
30
0
40
3.3500000000000085
210
0
220
0
230
1
0
LINE
5
235
100
AcDbEntity
8
0
100
AcDbLine
10
164.24604443047986
20
26.49660884895583
30
0
11
164.59566631357478
21
26.796284541424011
31
0
0
CIRCLE
5
236
100
AcDbEntity
8
0
100
AcDbCircle
10
7.4999999999999725
20
157.60000000000014
30
0
40
3.3499999999999934
210
0
220
0
230
1
0
CIRCLE
5
237
100
AcDbEntity
8
0
100
AcDbCircle
10
7.4999999999999867
20
82.549999999999983
30
0
40
3.3499999999999992
210
0
220
0
230
1
0
ARC
5
238
100
AcDbEntity
8
0
100
AcDbCircle
10
204.91970830017044
20
15.241171930267052
30
0
40
5.0000000000001421
210
0
220
0
230
1
100
AcDbArc
50
180
51
224.99999999999949
0
LINE
5
239
100
AcDbEntity
8
0
100
AcDbLine
10
253.38651656186204
20
88.504073350361807
30
0
11
254.85902860854242
21
89.10505175047561
31
0
0
LINE
5
240
100
AcDbEntity
8
0
100
AcDbLine
10
255.99264372680278
20
89.32747785161142
30
0
11
267.92893218813447
21
89.32747785161142
31
0
0
ARC
5
241
100
AcDbEntity
8
0
100
AcDbCircle
10
194.30617950181846
20
23.0000004172323
30
0
40
5.0000000000001874
210
0
220
-0
230
1
100
AcDbArc
50
52.57086979560831
51
89.999999999999019
0
ARC
5
242
100
AcDbEntity
8
0
100
AcDbCircle
10
194.91970830017021
20
22.530427772286107
30
0
40
5.0000000000001421
210
0
220
-0
230
1
100
AcDbArc
50
0
51
52.570869795606903
0
LINE
5
243
100
AcDbEntity
8
0
100
AcDbLine
10
235.00000350177288
20
137.90309505367051
30
0
11
235.00000350177288
21
136.85814624009268
31
0
0
ARC
5
244
100
AcDbEntity
8
0
100
AcDbCircle
10
110.99999999999996
20
133.34314575050763
30
0
40
4.0000000000000391
210
0
220
-0
230
1
100
AcDbArc
50
0
51
44.999999999998991
0
ARC
5
245
100
AcDbEntity
8
0
100
AcDbCircle
10
142.07106781186542
20
94.999999999999844
30
0
40
4.9999999999998392
210
0
220
0
230
1
100
AcDbArc
50
224.99999999999943
51
270.00000000000068
0
ARC
5
246
100
AcDbEntity
8
0
100
AcDbCircle
10
232.0000035017728
20
136.85814624009271
30
0
40
3.0000000000000404
210
0
220
0
230
1
100
AcDbArc
50
296.45339140616534
51
360
0
ARC
5
247
100
AcDbEntity
8
0
100
AcDbCircle
10
255.99264372680284
20
86.327477851610752
30
0
40
3.0000000000006821
210
0
220
0
230
1
100
AcDbArc
50
90.000000000001094
51
112.2019133944612
0
ARC
5
248
100
AcDbEntity
8
0
100
AcDbCircle
10
254.52013168012255
20
85.726499451497503
30
0
40
3.0000000000001146
210
0
220
0
230
1
100
AcDbArc
50
112.2019133944667
51
180
0
ARC
5
249
100
AcDbEntity
8
0
100
AcDbCircle
10
340.80543710577365
20
87.071067811865618
30
0
40
5.0000000000002789
210
0
220
0
230
1
100
AcDbArc
50
315.00000000000057
51
360
0
ARC
5
250
100
AcDbEntity
8
0
100
AcDbCircle
10
325.00000000000028
20
87.071067811865618
30
0
40
5.0000000000002842
210
0
220
0
230
1
100
AcDbArc
50
180
51
224.99999999999895
0
ARC
5
251
100
AcDbEntity
8
0
100
AcDbCircle
10
157.50000000000003
20
14.571067811865479
30
0
40
4.9999999999999725
210
0
220
0
230
1
100
AcDbArc
50
-45.000000000000256
51
0
0
ARC
5
252
100
AcDbEntity
8
0
100
AcDbCircle
10
267.92893218813447
20
94.327477851611661
30
0
40
5.0000000000002309
210
0
220
0
230
1
100
AcDbArc
50
270
51
314.99999999999841
0
ARC
5
253
100
AcDbEntity
8
0
100
AcDbCircle
10
319.13462799883257
20
149.90509327841264
30
0
40
3.0000000000007176
210
0
220
-0
230
1
100
AcDbArc
50
0
51
44.999999999994628
0
ARC
5
254
100
AcDbEntity
8
0
100
AcDbCircle
10
112.07106781188017
20
49.999999999964537
30
0
40
5.0000000000354738
210
0
220
0
230
1
100
AcDbArc
50
90.000000000080448
51
134.99999999976961
0
ARC
5
255
100
AcDbEntity
8
0
100
AcDbCircle
10
221.11559823532519
20
113.36950831731137
30
0
40
3.0000000000000604
210
0
220
0
230
1
100
AcDbArc
50
270
51
314.57806975495004
0
ARC
5
256
100
AcDbEntity
8
0
100
AcDbCircle
10
277.21629019820045
20
100.44655419583748
30
0
40
1.9999999999999396
210
0
220
-0
230
1
100
AcDbArc
50
90
51
135.0000000000029
0
ARC
5
257
100
AcDbEntity
8
0
100
AcDbCircle
10
110
20
47.92893218813451
30
0
40
5.0000000000000018
210
0
220
0
230
1
100
AcDbArc
50
134.99999999999986
51
180
0
ARC
5
258
100
AcDbEntity
8
0
100
AcDbCircle
10
245.09328670590438
20
19.027925865854055
30
0
40
5.0000000000000639
210
0
220
-0
230
1
100
AcDbArc
50
90
51
131.15409371820823
0
ARC
5
259
100
AcDbEntity
8
0
100
AcDbCircle
10
120
20
132.07106781186548
30
0
40
5.0000000000000178
210
0
220
0
230
1
100
AcDbArc
50
180
51
224.99999999999977
0
ARC
5
260
100
AcDbEntity
8
0
100
AcDbCircle
10
210.52826305071548
20
114.1076422947436
30
0
40
3.0000000000001465
210
0
220
0
230
1
100
AcDbArc
50
183.36642391859141
51
224.57806975494699
0
ARC
5
261
100
AcDbEntity
8
0
100
AcDbCircle
10
189.50000277906653
20
130.94566607731454
30
0
40
3.0000000000000426
210
0
220
0
230
1
100
AcDbArc
50
180
51
214.99199882556317
0
ARC
5
262
100
AcDbEntity
8
0
100
AcDbCircle
10
268.9413088776169
20
95.339854541093615
30
0
40
4.9999999999998899
210
0
220
0
230
1
100
AcDbArc
50
-45.000000000001279
51
0
0
ARC
5
263
100
AcDbEntity
8
0
100
AcDbCircle
10
203.09167683051012
20
121.99999999999986
30
0
40
3.0000000000001665
210
0
220
-0
230
1
100
AcDbArc
50
56.309957102114559
51
89.99999999999946
0
ARC
5
264
100
AcDbEntity
8
0
100
AcDbCircle
10
126.65685424949234
20
123.99999999999997
30
0
40
3.9999999999999547
210
0
220
0
230
1
100
AcDbArc
50
225.0000000000004
51
270.0000000000008
0
ARC
5
265
100
AcDbEntity
8
0
100
AcDbCircle
10
259.7759131907178
20
29.027925865854051
30
0
40
4.9999999999999245
210
0
220
0
230
1
100
AcDbArc
50
270
51
315.00000000000017
0
ARC
5
266
100
AcDbEntity
8
0
100
AcDbCircle
10
341.80543710577376
20
133.34314575050763
30
0
40
4.0000000000001279
210
0
220
-0
230
1
100
AcDbArc
50
0
51
44.99999999999855
0
ARC
5
267
100
AcDbEntity
8
0
100
AcDbCircle
10
222.00000333786033
20
112.83706955817514
30
0
40
1.9999999999997973
210
0
220
0
230
1
100
AcDbArc
50
-45.421930245051428
51
0
0
ARC
5
268
100
AcDbEntity
8
0
100
AcDbCircle
10
324.47498324679748
20
87.596084565067741
30
0
40
4.9999999999997886
210
0
220
0
230
1
100
AcDbArc
50
224.99999999999943
51
270
0
ARC
5
269
100
AcDbEntity
8
0
100
AcDbCircle
10
293.24264503825844
20
156.78372086728339
30
0
40
3.0000000000001572
210
0
220
0
230
1
100
AcDbArc
50
225.00000000000151
51
269.99999999999886
0
ARC
5
270
100
AcDbEntity
8
0
100
AcDbCircle
10
243.07077433263717
20
17.260210492109561
30
0
40
4.9999999999543769
210
0
220
0
230
1
100
AcDbArc
50
131.15409371820775
51
173.80333814320213
0
ARC
5
271
100
AcDbEntity
8
0
100
AcDbCircle
10
261.37682978360533
20
147.24264286268885
30
0
40
3.0000000000002829
210
0
220
0
230
1
100
AcDbArc
50
315.00000000000381
51
360
0
ARC
5
272
100
AcDbEntity
8
0
100
AcDbCircle
10
240.70512206465992
20
140.4878337882285
30
0
40
3.0000000000005222
210
0
220
0
230
1
100
AcDbArc
50
90.000000000002174
51
116.45339140616149
0
ARC
5
273
100
AcDbEntity
8
0
100
AcDbCircle
10
167.8496218830951
20
23.000000417232211
30
0
40
5.0000000000002931
210
0
220
0
230
1
100
AcDbArc
50
90.000000000001634
51
130.60127505843946
0
ARC
5
274
100
AcDbEntity
8
0
100
AcDbCircle
10
312.92893218813452
20
94.999999999999943
30
0
40
5.0000000000000782
210
0
220
-0
230
1
100
AcDbArc
50
45.000000000000462
51
90
0
ARC
5
275
100
AcDbEntity
8
0
100
AcDbCircle
10
318.25600040996278
20
150.78372086728234
30
0
40
3.0000000000008233
210
0
220
-0
230
1
100
AcDbArc
50
45.000000000009209
51
90
0
ARC
5
276
100
AcDbEntity
8
0
100
AcDbCircle
10
159.17157287525384
20
11.999999999999876
30
0
40
1.9999999999998752
210
0
220
0
230
1
100
AcDbArc
50
269.9999999999992
51
315.00000000000131
0
ARC
5
277
100
AcDbEntity
8
0
100
AcDbCircle
10
211.25560496311169
20
113.3695083173113
30
0
40
2.9999999999999911
210
0
220
0
230
1
100
AcDbArc
50
224.5780697549487
51
269.99999999999886
0
ARC
5
278
100
AcDbEntity
8
0
100
AcDbCircle
10
161.65685424949237
20
116.00000000000001
30
0
40
4.0000000000000036
210
0
220
-0
230
1
100
AcDbArc
50
90
51
134.9999999999996
0
ARC
5
279
100
AcDbEntity
8
0
100
AcDbCircle
10
127.92893218813461
20
115.00000000000016
30
0
40
4.9999999999998268
210
0
220
-0
230
1
100
AcDbArc
50
44.999999999999659
51
90.00000000000081
0
ARC
5
280
100
AcDbEntity
8
0
100
AcDbCircle
10
267.37682978360556
20
150.1304629628157
30
0
40
3.0000000000000444
210
0
220
0
230
1
100
AcDbArc
50
135
51
180
0
ARC
5
281
100
AcDbEntity
8
0
100
AcDbCircle
10
130.00000000000014
20
112.92893218813461
30
0
40
4.9999999999998401
210
0
220
0
230
1
100
AcDbArc
50
0
51
45.000000000000227
0
ARC
5
282
100
AcDbEntity
8
0
100
AcDbCircle
10
278.94130887761685
20
97.928932188134539
30
0
40
5.0000000000000657
210
0
220
0
230
1
100
AcDbArc
50
135.00000000000105
51
180
0
ARC
5
283
100
AcDbEntity
8
0
100
AcDbCircle
10
227.00000333786025
20
130.74440013308546
30
0
40
3.000000000000103
210
0
220
0
230
1
100
AcDbArc
50
134.57806975495103
51
180
0
ARC
5
284
100
AcDbEntity
8
0
100
AcDbCircle
10
112.07106781186542
20
24.999999999999879
30
0
40
4.9999999999998739
210
0
220
0
230
1
100
AcDbArc
50
224.99999999999972
51
270.00000000000068
0
ARC
5
285
100
AcDbEntity
8
0
100
AcDbCircle
10
150.00000000000014
20
97.071067811865404
30
0
40
4.9999999999998268
210
0
220
0
230
1
100
AcDbArc
50
-45.000000000000355
51
0
0
ARC
5
286
100
AcDbEntity
8
0
100
AcDbCircle
10
300.69461798911425
20
103
30
0
40
2.9999999999999938
210
0
220
0
230
1
100
AcDbArc
50
243.92699564682599
51
270
0
ARC
5
287
100
AcDbEntity
8
0
100
AcDbCircle
10
61.656854249492412
20
135.99999999999991
30
0
40
4.0000000000000746
210
0
220
0
230
1
100
AcDbArc
50
90.000000000000398
51
134.99999999999915
0
ARC
5
288
100
AcDbEntity
8
0
100
AcDbCircle
10
34.999999999999922
20
122.92893218813455
30
0
40
4.999999999999921
210
0
220
0
230
1
100
AcDbArc
50
134.99999999999991
51
180
0
ARC
5
289
100
AcDbEntity
8
0
100
AcDbCircle
10
341.3304538589764
20
87.596084565067898
30
0
40
4.9999999999999289
210
0
220
0
230
1
100
AcDbArc
50
270
51
314.99999999999989
0
ARC
5
290
100
AcDbEntity
8
0
100
AcDbCircle
10
204.09290369479669
20
121.33251604545237
30
0
40
3.0000000000001084
210
0
220
-0
230
1
100
AcDbArc
50
3.3664239185903249
51
56.309957102111547
0
ARC
5
291
100
AcDbEntity
8
0
100
AcDbCircle
10
270.58548774631549
20
153.33912092552532
30
0
40
3.0000000000001137
210
0
220
0
230
1
100
AcDbArc
50
90.000000000002174
51
135
0
ARC
5
292
100
AcDbEntity
8
0
100
AcDbCircle
10
325.13462799883348
20
144.33293741524147
30
0
40
3.0000000000002558
210
0
220
0
230
1
100
AcDbArc
50
180
51
225.00000000000151
0
ARC
5
293
100
AcDbEntity
8
0
100
AcDbCircle
10
255.52013168012257
20
86.161247746623175
30
0
40
4.0000000000001634
210
0
220
0
230
1
100
AcDbArc
50
180
51
224.99999999999912
0
ARC
5
294
100
AcDbEntity
8
0
100
AcDbCircle
10
147.92893218813458
20
94.999999999999844
30
0
40
4.9999999999998401
210
0
220
0
230
1
100
AcDbArc
50
269.99999999999932
51
315.00000000000057
0
ARC
5
295
100
AcDbEntity
8
0
100
AcDbCircle
10
326.24264068711921
20
143.22492472695518
30
0
40
2.9999999999998934
210
0
220
0
230
1
100
AcDbArc
50
225.00000000000077
51
270.0000000000021
0
ARC
5
296
100
AcDbEntity
8
0
100
AcDbCircle
10
260.62202070914594
20
146.48783378822881
30
0
40
2.9999999999997584
210
0
220
0
230
1
100
AcDbArc
50
269.99999999999784
51
315.00000000000119
0
ARC
5
297
100
AcDbEntity
8
0
100
AcDbCircle
10
167.49999999999974
20
22.700324724764403
30
0
40
4.9999999999997904
210
0
220
0
230
1
100
AcDbArc
50
130.60127505843855
51
180
0
ARC
5
298
100
AcDbEntity
8
0
100
AcDbCircle
10
122.92893218813454
20
14.999999999999947
30
0
40
5.0000000000000551
210
0
220
-0
230
1
100
AcDbArc
50
45.000000000000604
51
90
0
ARC
5
299
100
AcDbEntity
8
0
100
AcDbCircle
10
288.20196360577762
20
153.33912092552552
30
0
40
2.9999999999999183
210
0
220
-0
230
1
100
AcDbArc
50
44.999999999999623
51
90
0
ARC
5
300
100
AcDbEntity
8
0
100
AcDbCircle
10
169.29999610409124
20
126.15856369176029
30
0
40
5.0000000000001785
210
0
220
0
230
1
100
AcDbArc
50
312.71142265579493
51
360
0
ARC
5
301
100
AcDbEntity
8
0
100
AcDbCircle
10
114.28272448158985
20
72.000001147389398
30
0
40
4.9999999999999938
210
0
220
-0
230
1
100
AcDbArc
50
52.089373217343621
51
90
0
ARC
5
302
100
AcDbEntity
8
0
100
AcDbCircle
10
168.04497477584567
20
124.99999999999986
30
0
40
4.9999999999998046
210
0
220
0
230
1
100
AcDbArc
50
269.99999999999932
51
312.71142265579522
0
ARC
5
303
100
AcDbEntity
8
0
100
AcDbCircle
10
158
20
113.75735931288074
30
0
40
3.0000000000000067
210
0
220
0
230
1
100
AcDbArc
50
135
51
180
0
ARC
5
304
100
AcDbEntity
8
0
100
AcDbCircle
10
25.999999999999986
20
119.00000000000006
30
0
40
4.0000000000000213
210
0
220
0
230
1
100
AcDbArc
50
270.00000000000023
51
360
0
ARC
5
305
100
AcDbEntity
8
0
100
AcDbCircle
10
22.071067811865511
20
88.869740584017066
30
0
40
5.0000000000001066
210
0
220
0
230
1
100
AcDbArc
50
225.00000000000071
51
269.99999999999949
0
ARC
5
306
100
AcDbEntity
8
0
100
AcDbCircle
10
56.383676357354354
20
88.182348458953555
30
0
40
5.0000000000000355
210
0
220
0
230
1
100
AcDbArc
50
90.000000000000099
51
134.99999999999994
0
ARC
5
307
100
AcDbEntity
8
0
100
AcDbCircle
10
97.650776457351313
20
85.516841427468194
30
0
40
3.0000000000003051
210
0
220
0
230
1
100
AcDbArc
50
232.08937321734436
51
241.38954033403471
0
ARC
5
308
100
AcDbEntity
8
0
100
AcDbCircle
10
293.84230335147618
20
97.446554195837081
30
0
40
5.0000000000003189
210
0
220
-0
230
1
100
AcDbArc
50
63.926995646828509
51
90
0
ARC
5
309
100
AcDbEntity
8
0
100
AcDbCircle
10
264.71474285055785
20
78.380850138560902
30
0
40
5.0000000000000657
210
0
220
0
230
1
100
AcDbArc
50
225.00000000000045
51
270
0
ARC
5
310
100
AcDbEntity
8
0
100
AcDbCircle
10
19.86973925781345
20
107.79867144594817
30
0
40
4.9999999999998632
210
0
220
0
230
1
100
AcDbArc
50
134.99999999999937
51
180
0
ARC
5
311
100
AcDbEntity
8
0
100
AcDbCircle
10
86.120297876927552
20
83.0892333807043
30
0
40
6.0000000000002647
210
0
220
-0
230
1
100
AcDbArc
50
52.089373217343734
51
73.681449193411311
0
ARC
5
312
100
AcDbEntity
8
0
100
AcDbCircle
10
117.07308390345972
20
60.000000000000007
30
0
40
5
210
0
220
0
230
1
100
AcDbArc
50
270
51
360
0
ARC
5
313
100
AcDbEntity
8
0
100
AcDbCircle
10
42.928932858686778
20
88.869740584016938
30
0
40
5
210
0
220
0
230
1
100
AcDbArc
50
270
51
315.00000000000006
0
ARC
5
314
100
AcDbEntity
8
0
100
AcDbCircle
10
41.656854249492412
20
130.99999999999991
30
0
40
4.0000000000000924
210
0
220
0
230
1
100
AcDbArc
50
90.000000000000398
51
134.9999999999992
0
ARC
5
315
100
AcDbEntity
8
0
100
AcDbCircle
10
108.019977651852
20
81.000001147389341
30
0
40
3.9999999999999374
210
0
220
0
230
1
100
AcDbArc
50
241.38954033403459
51
270.0000000000008
0
ARC
5
316
100
AcDbEntity
8
0
100
AcDbCircle
10
192.60327899324383
20
130.00000000000014
30
0
40
5.0000000000001785
210
0
220
0
230
1
100
AcDbArc
50
214.99199882556354
51
270
0
ARC
5
317
100
AcDbEntity
8
0
100
AcDbCircle
10
52.92893218813451
20
140
30
0
40
5
210
0
220
0
230
1
100
AcDbArc
50
270.00000000000023
51
315.00000000000017
0
ARC
5
318
100
AcDbEntity
8
0
100
AcDbCircle
10
338.92365812932644
20
136.22492472695592
30
0
40
3.9999999999994018
210
0
220
-0
230
1
100
AcDbArc
50
44.999999999995097
51
90.000000000004079
0
ARC
5
319
100
AcDbEntity
8
0
100
AcDbCircle
10
240.00000350177288
20
137.90309505367051
30
0
40
5.0000000000000346
210
0
220
0
230
1
100
AcDbArc
50
116.4533914061643
51
180
0
ARC
5
320
100
AcDbEntity
8
0
100
AcDbCircle
10
136.24264068711926
20
12.999999999999964
30
0
40
2.9999999999999654
210
0
220
0
230
1
100
AcDbArc
50
225.00000000000006
51
270
0
ARC
5
321
100
AcDbEntity
8
0
100
AcDbCircle
10
226.81981604480239
20
131.97076051613934
30
0
40
2.0000000000000995
210
0
220
0
230
1
100
AcDbArc
50
90.000000000002444
51
134.57806975494836
0
ARC
5
322
100
AcDbEntity
8
0
100
AcDbCircle
10
19.869739257813595
20
91.071069138068793
30
0
40
5
210
0
220
0
230
1
100
AcDbArc
50
180
51
224.9999999999996
0
ARC
5
323
100
AcDbEntity
8
0
100
AcDbCircle
10
140.00000000000003
20
97.071067811865476
30
0
40
5.0000000000000178
210
0
220
0
230
1
100
AcDbArc
50
180
51
224.99999999999952
0
ARC
5
324
100
AcDbEntity
8
0
100
AcDbCircle
10
110
20
27.07106781186549
30
0
40
5.0000000000000178
210
0
220
0
230
1
100
AcDbArc
50
180
51
225.00000000000011
0
ARC
5
325
100
AcDbEntity
8
0
100
AcDbCircle
10
315.00000000000006
20
92.928932188134553
30
0
40
4.9999999999998934
210
0
220
0
230
1
100
AcDbArc
50
0
51
45.000000000000227
0
ARC
5
326
100
AcDbEntity
8
0
100
AcDbCircle
10
72.42649413740638
20
89.182348458953285
30
0
40
4.0000000000002851
210
0
220
-0
230
1
100
AcDbArc
50
73.681449193412305
51
89.999999999998991
0
ARC
5
327
100
AcDbEntity
8
0
100
AcDbCircle
10
21.242640687119305
20
111.99999999999996
30
0
40
3.0000000000000604
210
0
220
0
230
1
100
AcDbArc
50
90.000000000000341
51
134.99999999999972
0
ARC
5
328
100
AcDbEntity
8
0
100
AcDbCircle
10
107.51471862576142
20
133.99999999999994
30
0
40
6.0000000000000764
210
0
220
-0
230
1
100
AcDbArc
50
45
51
90
0
ARC
5
329
100
AcDbEntity
8
0
100
AcDbCircle
10
117.07308390345966
20
69.82693430842653
30
0
40
5.0000000000000533
210
0
220
-0
230
1
100
AcDbArc
50
0
51
52.089373217343415
0
ENDSEC
0
SECTION
2
OBJECTS
0
DICTIONARY
5
C
100
AcDbDictionary
3
ACAD_GROUP
350
D
3
ACAD_MLINESTYLE
350
17
0
DICTIONARY
5
D
100
AcDbDictionary
0
DICTIONARY
5
1A
330
C
100
AcDbDictionary
0
DICTIONARY
5
17
100
AcDbDictionary
0
ENDSEC
0
EOF
